<svg height="681pt" viewBox="-21 -21 681.33332 681" width="681pt" xmlns="http://www.w3.org/2000/svg"><path d="m33.855469 552.0625c9.324219 9.324219 20.949219 15.914062 33.683593 19.242188 3.328126 12.734374 9.917969 24.363281 19.242188 33.683593 19.175781 19.175781 47.101562 26.136719 72.746094 19.035157 16.40625 12.699218 37.09375 16.988281 57.332031 13.789062 20.863281-3.304688 39.507813-14.460938 52.136719-30.722656l369.753906-313.621094-27.597656-27.597656c14.136718-14.140625 21.925781-32.9375 21.925781-52.933594 0-17.054688-5.667969-33.238281-16.113281-46.40625 7.074218-25.628906.113281-53.523438-19.046875-72.6875-9.328125-9.324219-20.953125-15.914062-33.683594-19.242188-3.332031-12.734374-9.917969-24.355468-19.246094-33.683593-19.160156-19.164063-47.0625-26.125-72.695312-19.046875-29.351563-23.226563-72.230469-21.289063-99.332031 5.808594l-27.597657-27.5976568-313.625 369.7812498c-16.164062 12.558594-27.289062 31.046875-30.660156 51.785157-3.46875 21.332031 1.519531 41.890624 13.742187 57.667968-7.101562 25.648438-.144531 53.566406 19.035157 72.746094zm177.152343 48.78125c-12.117187 1.917969-23.441406-1.234375-31.160156-8.660156-1.851562-2.449219-1.746094-2.058594-11.199218-12.789063l-12.734376 6.15625c-14.375 6.945313-31.519531 4.121094-42.667968-7.023437-13.300782-13.304688-10.269532-28.382813-11.585938-41.34375-12.910156-1.3125-28.03125 1.722656-41.34375-11.589844-11.152344-11.144531-13.96875-28.292969-7.023437-42.664062l6.15625-12.738282c-10.699219-9.417968-10.328125-9.335937-12.792969-11.195312-7.472656-7.769532-10.617188-19.15625-8.640625-31.339844 1.601563-9.863281 6.390625-18.769531 13.378906-25.40625 19.824219 16.890625 42.136719 30.191406 66.183594 39.617188l-4.332031 4.332031c-21.886719 21.890625-21.886719 57.503906 0 79.394531 21.890625 21.890625 57.507812 21.890625 79.398437 0l3.726563-3.726562c9.777344 23.726562 23.300781 45.875 40.203125 65.59375-6.671875 7.015624-15.644531 11.8125-25.566407 13.382812zm-31.339843-143.800781c.949219 8.269531 2.300781 16.457031 4.074219 24.519531l-17.5625 17.566406c-7.296876 7.296875-19.167969 7.296875-26.464844 0-7.300782-7.296875-7.300782-19.167968 0-26.464844l18.839844-18.839843c6.945312 1.371093 13.988281 2.441406 21.113281 3.21875zm84.472656 105.085937c-25.015625-29.570312-41.136719-65.5-46.582031-103.796875 62.914062-2.515625 123.527344-28.253906 168.636718-73.367187 45.332032-45.332032 68.984376-104.25 70.984376-163.765625 43.121093 6.609375 83.128906 26.757812 114.273437 57.902343l12.101563 12.101563zm227.917969-388.886718-13.820313 13.820312c-7.480469-1.648438-15.0625-2.941406-22.71875-3.875-.921875-7.550781-2.191406-15.070312-3.820312-22.519531l13.894531-13.894531c7.292969-7.292969 19.171875-7.292969 26.464844 0 7.3125 7.316406 7.3125 19.152343 0 26.46875zm-38.332032-117.300782 9.394532 10.570313 12.734375-6.15625c14.371093-6.945313 31.519531-4.121094 42.664062 7.023437 8.222657 8.222656 10.363281 17.863282 10.707031 24.511719l.882813 16.832031 16.832031.878906c6.644532.34375 16.292969 2.484376 24.511719 10.707032 11.148437 11.148437 13.96875 28.292968 7.019531 42.667968l-6.15625 12.738282c10.660156 9.378906 10.347656 9.347656 12.796875 11.195312 6.800781 7.019532 10.53125 16.238282 10.53125 26.027344 0 10-3.890625 19.398438-10.957031 26.46875-.175781.167969-.367188.324219-.542969.496094-19.722656-16.90625-41.875-30.4375-65.613281-40.210938 21.925781-21.933594 21.933594-57.441406-.011719-79.382812-21.890625-21.890625-57.507812-21.886719-79.394531 0-9.601562-23.402344-22.992188-45.59375-40.183594-65.632813.164063-.175781.316406-.359375.480469-.527343 14.304687-14.300782 38.914063-15.515626 54.304687 1.792968zm-106.097656-.664062 12.101563 12.101562c80.261719 80.261719 80.261719 210.855469 0 291.121094-74.804688 74.804688-200.335938 85.53125-282.996094 16.171875zm0 0"/><path d="m320.039062 186.46875 26.464844 26.464844-26.464844 26.46875-26.464843-26.46875zm0 0"/><path d="m320.042969 292.335938 26.464843 26.460937-26.464843 26.464844-26.46875-26.464844zm0 0"/><path d="m214.171875 292.335938 26.464844 26.460937-26.464844 26.464844-26.46875-26.464844zm0 0"/></svg>